<svg width="225" height="48" viewBox="0 0 225 48" fill="none" xmlns="http://www.w3.org/2000/svg">
<path d="M1.82422 9.76367L2.76367 8.11328L2.86523 7.96094C3.01758 7.89323 3.09375 7.80013 3.09375 7.68164C3.33073 7.32617 3.48307 7.13997 3.55078 7.12305C3.66927 6.90299 3.98242 6.53906 4.49023 6.03125C4.91341 5.86198 5.22656 5.68424 5.42969 5.49805C5.48047 5.48112 5.64128 5.41341 5.91211 5.29492C6.18294 5.15951 6.38607 5.0918 6.52148 5.0918C6.52148 5.00716 6.55534 4.87174 6.62305 4.68555L6.59766 4.55859L6.72461 3.26367L6.67383 1.35938L6.97852 0.775391C6.99544 0.775391 7.05469 0.792318 7.15625 0.826172C7.27474 0.860026 7.35938 0.860026 7.41016 0.826172H8.40039H10.3555C10.3893 0.792318 10.4232 0.775391 10.457 0.775391H11.0918L11.1426 0.826172C11.2611 0.707682 11.3965 0.724609 11.5488 0.876953C12.4798 0.690755 12.9876 0.673828 13.0723 0.826172L13.2246 1.13086L13.123 1.61328V2.01953L13.0723 2.40039V4.50781C13.2077 4.59245 13.36 4.66862 13.5293 4.73633C13.6986 4.80404 13.8509 4.86328 13.9863 4.91406C14.1217 4.94792 14.2064 4.97331 14.2402 4.99023C14.9004 5.26107 15.2728 5.41341 15.3574 5.44727L16.043 5.87891C16.0599 5.86198 16.0853 5.87891 16.1191 5.92969C16.1361 5.94661 16.1445 5.96354 16.1445 5.98047C16.1953 6.04818 16.6777 6.42904 17.5918 7.12305C17.7949 7.3431 18.0234 7.57161 18.2773 7.80859C18.4297 8.28255 18.5651 8.51953 18.6836 8.51953C18.7682 8.63802 18.9206 9.00195 19.1406 9.61133L19.4199 10.3984L19.4707 10.4492V10.5508L19.6738 10.957L19.7754 13.1914L19.8262 14.0801V14.7148C19.8262 15.4596 19.8092 16.1875 19.7754 16.8984C19.7585 16.8984 19.7331 16.9154 19.6992 16.9492C19.6654 16.9661 19.623 16.9915 19.5723 17.0254C19.5384 17.0592 19.5046 17.0846 19.4707 17.1016L18.582 17.2539C18.582 17.2878 18.4974 17.3047 18.3281 17.3047L18.0996 17.2539L17.998 17.3047C16.627 17.3047 15.8483 17.3555 15.6621 17.457L14.0117 17.3555L13.6816 17.4062L13.377 17.3047C13.377 17.3724 13.3346 17.4062 13.25 17.4062C13.1654 17.4062 13.123 17.3724 13.123 17.3047C12.9876 17.2031 13.0046 17.0677 13.1738 16.8984C13.3092 16.3229 13.377 15.7982 13.377 15.3242C13.2077 14.6641 13.123 14.0462 13.123 13.4707V13.4199C13.0892 13.3861 13.0723 13.3522 13.0723 13.3184V13.1406C12.8861 12.6328 12.7083 12.3451 12.5391 12.2773C12.5391 12.2435 12.5221 12.2266 12.4883 12.2266L11.2441 11.5918C11.1426 11.5918 11.0579 11.5579 10.9902 11.4902L10.584 11.541L10.3047 11.4902L9.49219 11.7949C9.47526 11.7949 9.39909 11.8372 9.26367 11.9219C9.12826 12.0065 9.02669 12.0658 8.95898 12.0996L8.75586 12.3789C8.63737 12.5482 8.55273 12.6328 8.50195 12.6328L8.07031 13.3691V13.8262C7.51172 14.5371 7.57943 15.959 8.27344 18.0918L8.55273 18.4473C8.70508 18.7181 8.84049 18.9128 8.95898 19.0312L9.31445 19.5898L9.84766 20.0723V20.1738L9.89844 20.2246H10V20.3262H10.0508C10.0846 20.3262 10.2201 20.4447 10.457 20.6816C10.7109 20.9355 10.8717 21.1302 10.9395 21.2656C11.5319 21.7565 11.8789 22.0273 11.9805 22.0781C12.0482 22.112 12.1751 22.2051 12.3613 22.3574C12.5645 22.5267 12.7083 22.6367 12.793 22.6875C12.8268 22.7044 12.9792 22.8229 13.25 23.043C13.5378 23.2461 13.7578 23.3646 13.9102 23.3984L14.2656 23.8047L15.0527 24.2871C15.1204 24.304 15.5098 24.6341 16.2207 25.2773C16.9486 25.9375 17.4479 26.5299 17.7188 27.0547C18.0234 27.6302 18.1842 27.9941 18.2012 28.1465C18.235 28.2819 18.3112 28.4766 18.4297 28.7305C18.5143 28.8997 18.7005 29.6361 18.9883 30.9395L19.1406 31.5488L19.2676 32.1328C19.2676 32.793 19.2845 33.1738 19.3184 33.2754C19.2507 33.4447 19.2507 33.5801 19.3184 33.6816L18.9375 35.8145V36.043L18.8867 36.1445V36.3477L18.7852 36.4492L18.582 37.3887C18.5651 37.4056 18.5228 37.4818 18.4551 37.6172C18.3874 37.7357 18.3281 37.8118 18.2773 37.8457V38.2773C18.1589 38.3958 18.0658 38.5312 17.998 38.6836L17.7441 39.4199C17.6934 39.4368 17.5918 39.5215 17.4395 39.6738V39.7754C17.3379 39.8262 17.2871 39.9108 17.2871 40.0293L17.0078 40.3594L16.8047 40.6641C16.5677 40.7995 16.4492 40.918 16.4492 41.0195C16.4154 41.0534 16.3477 41.0703 16.2461 41.0703C16.2461 41.1719 16.2292 41.2396 16.1953 41.2734C16.1615 41.2734 16.0345 41.3835 15.8145 41.6035C15.7975 41.6035 15.7298 41.6374 15.6113 41.7051C15.4928 41.7728 15.3913 41.7897 15.3066 41.7559C15.1374 41.9251 14.9766 42.0352 14.8242 42.0859C14.6888 42.1367 14.5534 42.2298 14.418 42.3652C14.1302 42.4668 13.8171 42.5938 13.4785 42.7461C13.4785 42.7799 13.4447 42.8307 13.377 42.8984C13.377 42.9492 13.3685 43 13.3516 43.0508C13.3516 43.1185 13.3516 43.1693 13.3516 43.2031L13.3262 43.2539L13.4277 44.6758C13.4277 45.5391 13.36 46.2839 13.2246 46.9102C13.0723 46.9779 12.5729 47.0117 11.7266 47.0117L10.8887 46.9102C10.7702 46.9102 10.6432 46.944 10.5078 47.0117H8.12109C7.30859 47.0117 6.54688 46.9948 5.83594 46.9609V46.3008C5.83594 45.793 5.86979 45.2682 5.9375 44.7266C6.00521 44.1849 6.02214 43.7617 5.98828 43.457L5.9375 43.4062V43.3047C6.10677 42.7969 5.98828 42.543 5.58203 42.543C5.5651 42.5091 5.4043 42.4245 5.09961 42.2891C4.77799 42.1706 4.60026 42.0944 4.56641 42.0605H4.33789C4.01628 41.9251 3.77083 41.7728 3.60156 41.6035H3.44922C3.44922 41.5358 3.43229 41.502 3.39844 41.502L2.99219 41.3242L2.45898 40.8672V40.7656C2.44206 40.7656 2.41667 40.7572 2.38281 40.7402C2.34896 40.7233 2.32357 40.7148 2.30664 40.7148L1.67188 40.0293C1.62109 40.0124 1.5026 39.8262 1.31641 39.4707C1.29948 39.2845 1.10482 38.8275 0.732422 38.0996C0.732422 37.8457 0.698568 37.6426 0.630859 37.4902C0.630859 37.1348 0.546224 36.9232 0.376953 36.8555C0.376953 36.6354 0.343099 36.153 0.275391 35.4082V34.6719L0.300781 34.3164C0.317708 34.1133 0.275391 33.834 0.173828 33.4785L0.224609 32.8184C0.258464 32.5814 0.258464 32.2344 0.224609 31.7773C0.224609 31.6589 0.216146 31.5319 0.199219 31.3965C0.199219 31.2441 0.190755 31.1341 0.173828 31.0664C0.173828 30.9818 0.173828 30.9225 0.173828 30.8887L0.427734 30.7363L0.630859 30.5078L0.707031 30.5586C0.77474 30.5755 0.859375 30.584 0.960938 30.584C1.07943 30.5671 1.21484 30.5247 1.36719 30.457C1.65495 30.3555 1.89193 30.3385 2.07812 30.4062C2.29818 30.474 2.53516 30.5247 2.78906 30.5586C3.0599 30.5755 3.21224 30.5417 3.24609 30.457C3.58464 30.457 4.20247 30.4316 5.09961 30.3809C6.04753 30.3301 6.67383 30.3385 6.97852 30.4062C7.04622 30.474 7.08008 30.6348 7.08008 30.8887L7.0293 31.4473L6.92773 32.082C6.89388 32.4544 6.92773 32.9453 7.0293 33.5547C7.11393 33.7747 7.25781 34.0456 7.46094 34.3672C7.51172 34.418 7.6556 34.4941 7.89258 34.5957C8.12956 34.6973 8.25651 34.7565 8.27344 34.7734C9.30599 34.7734 10.0169 34.7396 10.4062 34.6719C10.8464 34.4518 11.2695 34.0879 11.6758 33.5801C11.7435 33.2754 11.8451 33.0215 11.9805 32.8184C12.0482 32.3275 12.0397 31.9128 11.9551 31.5742C11.8704 31.2526 11.7943 30.8633 11.7266 30.4062C11.7435 30.3893 11.6842 30.2708 11.5488 30.0508C11.4134 29.8138 11.2526 29.5599 11.0664 29.2891C10.8971 29.0182 10.7702 28.8405 10.6855 28.7559C10.5501 28.722 10.4062 28.6035 10.2539 28.4004C10.2201 28.4004 10.0846 28.3073 9.84766 28.1211L9.64453 28.0195L9.11133 27.6133C8.18034 27.1393 7.52018 26.7246 7.13086 26.3691L6.4707 25.9375C6.41992 25.9206 6.14909 25.7428 5.6582 25.4043C5.2181 25.0996 4.93034 24.8626 4.79492 24.6934C4.69336 24.5579 4.60872 24.4902 4.54102 24.4902L4.43945 24.4395L3.47461 23.5508L2.1543 22.3066C1.95117 21.9004 1.79036 21.638 1.67188 21.5195C1.65495 21.4857 1.58724 21.401 1.46875 21.2656C1.36719 21.1133 1.27409 20.944 1.18945 20.7578C1.10482 20.5716 1.0625 20.3939 1.0625 20.2246C0.960938 19.9199 0.910156 19.7422 0.910156 19.6914L0.681641 19.2852C0.630859 19.099 0.580078 18.9043 0.529297 18.7012C0.478516 18.4811 0.436198 18.3118 0.402344 18.1934C0.36849 18.0579 0.343099 17.9564 0.326172 17.8887L0.173828 16.5938C0.156901 16.4922 0.156901 16.2383 0.173828 15.832C0.190755 15.4258 0.190755 15.1719 0.173828 15.0703L0.326172 14.3086V14.1816L0.376953 14.0801V13.8262L0.529297 13.1406C0.681641 12.2096 0.910156 11.4648 1.21484 10.9062C1.31641 10.6016 1.41797 10.3984 1.51953 10.2969L1.57031 10.1953V10.0938C1.57031 10.043 1.65495 9.93294 1.82422 9.76367ZM28.5605 4.58398L28.9922 4.55859C29.2799 4.52474 29.4323 4.5332 29.4492 4.58398L30.084 4.40625C30.5072 4.54167 31.235 4.57552 32.2676 4.50781L32.8262 4.45703C33.0124 4.45703 33.3424 4.49935 33.8164 4.58398H34.1719L34.959 4.50781L35.543 4.58398H35.6953L36.3047 4.68555C36.4062 4.68555 36.6855 4.77018 37.1426 4.93945H37.4473L38.0312 5.0918C38.2005 5.19336 38.3867 5.24414 38.5898 5.24414C38.6576 5.31185 38.7253 5.3457 38.793 5.3457H38.9453C39.0469 5.3457 39.2669 5.39648 39.6055 5.49805C39.8255 5.56576 40.0625 5.625 40.3164 5.67578C40.5534 5.8112 40.9173 5.98047 41.4082 6.18359C41.459 6.23438 41.5605 6.31901 41.7129 6.4375C41.8822 6.55599 41.9753 6.6237 41.9922 6.64062L42.043 6.76758H42.1445L42.3477 6.9707C42.4492 7.02148 42.6016 7.13997 42.8047 7.32617C43.0247 7.49544 43.1686 7.59701 43.2363 7.63086C43.2871 7.7832 43.4902 8.0625 43.8457 8.46875C44.2012 8.84115 44.4297 9.06966 44.5312 9.1543C44.5312 9.18815 44.5651 9.26432 44.6328 9.38281L45.4707 11.1855C45.5723 11.3887 45.6061 11.5072 45.5723 11.541C45.6908 11.6595 45.8092 11.9049 45.9277 12.2773V12.6836C46.3509 13.7331 46.5625 14.4609 46.5625 14.8672L46.918 15.8066C46.8841 16.0775 46.901 16.4414 46.9688 16.8984L47.0703 17.6094V18.4219C47.0703 18.9974 47.1042 19.3867 47.1719 19.5898C47.1042 19.8268 47.0872 20.0215 47.1211 20.1738L46.8164 21.2656C46.8841 21.8073 46.8587 22.2897 46.7402 22.7129L46.5625 23.3984C46.4779 23.4831 46.3678 23.6947 46.2324 24.0332L46.0293 24.541L45.9277 24.6426C45.9277 24.7103 45.8939 24.778 45.8262 24.8457L45.2168 26.0898L45.0391 26.4199L44.8867 26.623L44.7852 26.6738L44.6836 26.877H44.6582L44.6328 26.9023L44.3027 27.4102C44.0488 27.7318 43.7949 27.9688 43.541 28.1211V28.2227L42.8047 28.959L42.3984 29.2637H42.3477L41.6621 29.8984C41.6113 29.9492 41.4759 30.0169 41.2559 30.1016C41.0527 30.1693 40.9173 30.2201 40.8496 30.2539V30.3047H40.7227L40.5195 30.5078L40.1641 30.6855L40.0117 30.7871L39.2754 31.1426L38.8184 31.1934C38.429 31.3796 38.1243 31.5065 37.9043 31.5742C37.6165 31.6758 37.2695 31.7773 36.8633 31.8789C36.5586 31.9635 36.0254 32.0482 35.2637 32.1328C34.5189 32.2005 34.0026 32.2852 33.7148 32.3867C33.6133 32.6068 33.5964 32.9368 33.6641 33.377V33.6055L33.7148 35.7129L33.6641 36.3477V36.4238V36.957C33.6641 37.6003 33.6471 38.2773 33.6133 38.9883L33.5625 39.623V42.1621C33.5625 42.7207 33.4779 43 33.3086 43H32.6738L31.8359 43.1016C31.6159 43.1185 31.3874 43.1185 31.1504 43.1016C30.9303 43.1016 30.7865 43.0931 30.7188 43.0762C30.651 43.0762 30.5749 43.0846 30.4902 43.1016H29.957L29.5508 43.0508C28.2643 43.1862 27.5703 43.2031 27.4688 43.1016C27.418 43.0508 27.3587 42.9746 27.291 42.873L27.1641 42.6191C27.1471 42.5176 27.1387 42.416 27.1387 42.3145C27.1556 42.2129 27.1725 42.069 27.1895 41.8828C27.2064 41.6966 27.2148 41.5697 27.2148 41.502V41.2227L27.1641 41.1211L27.2148 41.0703L27.1133 40.5117L27.1641 40.0801L27.1133 38.2266C27.1133 37.9557 27.1471 37.5749 27.2148 37.084V36.957L27.2656 36.7539L27.2148 36.6523V36.5L27.2656 35.916C27.2826 35.8314 27.2741 35.6367 27.2402 35.332C27.2233 35.0273 27.2318 34.8242 27.2656 34.7227V33.5293L27.3164 32.6914C27.3164 32.4206 27.2995 32.1497 27.2656 31.8789V30.9902L27.3164 30.1523L27.2656 28.4512L27.3164 27.1309L27.418 23.0938L27.4688 21.418C27.4688 21.1302 27.4518 20.8678 27.418 20.6309L27.4688 19.9199V19.082L27.5195 18.6758L27.4688 18.2949L27.5703 17.5078L27.5195 16.3652L27.4688 16.0098L27.5195 15.9082L27.418 15.0703L27.4688 14.9688L27.418 14.918C27.4518 14.7826 27.4688 14.6133 27.4688 14.4102L27.418 14.3086V13.8262C27.3503 13.5723 27.3164 13.3607 27.3164 13.1914L27.3672 12.2266C27.3672 11.6849 27.3503 11.194 27.3164 10.7539L27.2656 9.66211V9.35742L27.3164 8.57031L27.2656 7.47852C27.1979 6.68294 27.1979 5.92122 27.2656 5.19336C27.2995 5.17643 27.3333 5.11719 27.3672 5.01562C27.401 4.89714 27.4349 4.82096 27.4688 4.78711L28.0527 4.63477H28.1035C28.1712 4.70247 28.3236 4.68555 28.5605 4.58398ZM33.8164 22.4336L33.8672 23.5C33.901 24.0924 33.9518 24.3887 34.0195 24.3887L35.543 24.2871C35.8307 24.1348 36.1947 24.0417 36.6348 24.0078C36.8379 23.9062 37.041 23.8047 37.2441 23.7031C37.3288 23.6693 37.3796 23.6439 37.3965 23.627C37.4303 23.61 37.4473 23.5846 37.4473 23.5508C37.4642 23.4831 37.515 23.4492 37.5996 23.4492C37.7012 23.4492 38.0905 23.2376 38.7676 22.8145C38.8353 22.7467 38.9622 22.5859 39.1484 22.332C39.3346 22.0612 39.4616 21.8919 39.5293 21.8242L40.0117 20.377L40.1641 20.0723V19.9199L40.2656 19.6406C40.2656 19.4375 40.3164 19.1836 40.418 18.8789C40.5872 17.8464 40.6296 17.1016 40.5449 16.6445C40.528 16.543 40.5026 16.4414 40.4688 16.3398C40.4518 16.2383 40.4349 16.1621 40.418 16.1113V16.0352C40.418 15.9674 40.3333 15.7559 40.1641 15.4004V15.0703C40.0964 14.918 40.0794 14.7995 40.1133 14.7148C39.9271 14.3763 39.7663 13.9954 39.6309 13.5723C39.5124 13.4538 39.3939 13.2591 39.2754 12.9883C39.2246 12.9544 39.123 12.8698 38.9707 12.7344C38.8353 12.582 38.7083 12.472 38.5898 12.4043C38.4714 12.3197 38.3529 12.2181 38.2344 12.0996H38.1836C37.8112 11.7272 37.2611 11.541 36.5332 11.541L35.8984 11.3379C35.6953 11.3548 35.3568 11.3294 34.8828 11.2617C34.4089 11.194 34.1042 11.2194 33.9688 11.3379C33.9349 11.4902 33.9264 11.7272 33.9434 12.0488C33.9603 12.4043 33.9349 12.6159 33.8672 12.6836V14.0801C33.7995 14.554 33.7826 15.0111 33.8164 15.4512V18.3457C33.7826 18.3457 33.7656 18.6758 33.7656 19.3359L33.8164 20.3262L33.7656 21.1641V22.002C33.7995 22.2389 33.8164 22.3828 33.8164 22.4336ZM53.0625 30.584C53.0625 30.4993 53.0202 30.2201 52.9355 29.7461V29.2637L52.8848 28.8574V28.4004C52.8171 28.3327 52.7832 28.2734 52.7832 28.2227V27.9688L52.6309 26.2676C52.6309 26.0137 52.6139 25.7344 52.5801 25.4297L52.4277 23.7031V21.4688C52.4616 21.2995 52.4785 21.1979 52.4785 21.1641V20.123C52.4785 20.0046 52.5124 19.8438 52.5801 19.6406V18.9805C52.5801 18.4896 52.6309 18.041 52.7324 17.6348C52.7324 17.347 52.7493 17.0846 52.7832 16.8477L52.8848 16.3145C52.8848 15.8913 52.9017 15.5443 52.9355 15.2734L53.1641 14.6641C53.3164 13.987 53.401 13.5553 53.418 13.3691C53.4688 13.2845 53.5026 13.1576 53.5195 12.9883C53.5365 12.819 53.5534 12.7174 53.5703 12.6836L53.7227 12.0488L53.875 11.7441C53.9766 11.304 54.0443 11.084 54.0781 11.084C54.1289 11.084 54.2305 10.8639 54.3828 10.4238C54.5352 10.0007 54.679 9.67904 54.8145 9.45898L55.5 8.11328L56.2617 7.17383L56.3887 7.12305C56.4225 7.12305 56.4395 7.10612 56.4395 7.07227L56.5918 6.91992L56.7949 6.81836C56.8118 6.7168 56.8796 6.64062 56.998 6.58984L57.8867 5.98047C58.1406 5.70964 58.3099 5.56576 58.3945 5.54883C58.4284 5.48112 58.5723 5.38802 58.8262 5.26953C59.0801 5.13411 59.3001 4.99023 59.4863 4.83789L59.9688 4.68555L60.3242 4.40625L61.1113 4.30469L61.8984 4.15234H62.6094L62.7109 4.10156H62.8887L63.041 4.15234L63.2949 4.10156H65.6309C65.834 4.20312 66.1133 4.25391 66.4688 4.25391C66.6719 4.35547 66.8919 4.44857 67.1289 4.5332C67.3659 4.60091 67.569 4.68555 67.7383 4.78711C67.9414 4.9056 68.1784 5.00716 68.4492 5.0918L68.8047 5.39648L69.2109 5.59961C69.5833 5.88737 69.8457 6.0651 69.998 6.13281L70.1504 6.38672C70.1504 6.42057 70.1673 6.4375 70.2012 6.4375L70.3027 6.64062C70.3027 6.67448 70.3197 6.69141 70.3535 6.69141L70.582 6.91992C70.582 6.9707 70.6497 7.03841 70.7852 7.12305C70.9375 7.37695 71.0729 7.55469 71.1914 7.65625L71.5215 7.91016L71.5977 8.0625L72.0293 8.77344L72.3848 9.71289L72.7148 10.3477L73.0703 11.3887C73.138 11.3887 73.1719 11.4395 73.1719 11.541V11.6934C73.1719 11.8118 73.248 12.1419 73.4004 12.6836C73.5527 13.2083 73.722 13.6061 73.9082 13.877L74.0605 14.918L74.4668 17.2539C74.5345 17.5417 74.5684 17.8717 74.5684 18.2441V18.4473C74.5684 18.4811 74.5853 18.515 74.6191 18.5488V18.6758L74.5938 18.8281C74.5768 18.8958 74.5853 18.9805 74.6191 19.082V19.1328C74.6361 19.2852 74.6784 19.8014 74.7461 20.6816L74.8984 22.2051L74.8477 23.957V24.4648V24.8457L74.7969 24.8965L74.8477 25.0488V25.2773C74.8138 25.2773 74.7969 25.2943 74.7969 25.3281L74.7461 26.0391C74.7461 27.0716 74.6868 27.6471 74.5684 27.7656V28.1211C74.5684 28.8659 74.5176 29.3568 74.416 29.5938V29.8477C74.3483 30.0339 74.3145 30.1693 74.3145 30.2539L74.2637 30.3047L74.3145 30.3555V30.4062C74.3145 30.4909 74.2806 30.6348 74.2129 30.8379L74.0098 32.9199L73.9082 33.2754C73.9082 33.7663 73.8405 34.1641 73.7051 34.4688L73.4258 35.2305C73.2565 35.7383 73.1719 36.0599 73.1719 36.1953L72.8672 36.8555V36.9062C72.8672 37.1432 72.8164 37.2871 72.7148 37.3379C72.681 37.4902 72.5879 37.7441 72.4355 38.0996C72.2832 38.4551 72.1986 38.6667 72.1816 38.7344C72.0632 38.8529 71.8939 39.0645 71.6738 39.3691V39.4707L71.5723 39.5215C71.5723 39.5892 71.5553 39.623 71.5215 39.623L71.4453 39.6738L71.3438 39.877L71.293 39.9277C71.2253 39.9447 71.2083 39.9785 71.2422 40.0293L70.3027 40.8164C70.2858 40.8333 70.2604 40.8503 70.2266 40.8672C70.1927 40.8672 70.1504 40.8757 70.0996 40.8926C70.0658 40.9095 69.9896 40.9518 69.8711 41.0195C69.7695 41.0703 69.651 41.138 69.5156 41.2227C69.2279 41.4427 69.0671 41.5527 69.0332 41.5527L68.5 41.8066C68.3984 41.8405 68.2715 41.8574 68.1191 41.8574C68.1191 41.8913 68.0684 41.959 67.9668 42.0605C67.2559 42.2806 66.5788 42.4329 65.9355 42.5176C65.2585 42.6022 64.8945 42.6615 64.8438 42.6953H64.793L64.7422 42.6445L64.1328 42.7461C64.0143 42.763 63.8874 42.7715 63.752 42.7715C63.6335 42.7546 63.4896 42.7376 63.3203 42.7207C63.151 42.7038 63.0579 42.6953 63.041 42.6953H62.457C61.2383 42.4414 60.4258 42.196 60.0195 41.959L59.1816 41.7559C59.1647 41.722 59.1309 41.6966 59.0801 41.6797C59.0293 41.6628 58.9531 41.6204 58.8516 41.5527C58.75 41.485 58.64 41.375 58.5215 41.2227L58.2422 41.1211C58.056 41.0534 57.8529 40.9518 57.6328 40.8164C57.3281 40.6302 57.1589 40.5286 57.125 40.5117C57.1081 40.4948 57.015 40.4355 56.8457 40.334C56.6764 40.2324 56.5749 40.1647 56.541 40.1309L56.1602 39.7754L55.6523 39.1406L55.3477 38.8359L55.2969 38.7598C55.263 38.709 55.2122 38.6413 55.1445 38.5566C55.0768 38.472 55.0007 38.3789 54.916 38.2773L54.7637 37.8965L54.459 37.2363C54.3743 36.847 54.2812 36.5592 54.1797 36.373C54.0781 36.1868 53.9258 35.6536 53.7227 34.7734C53.5195 33.8932 53.418 33.3092 53.418 33.0215L53.2656 32.2344C53.2318 32.099 53.2148 31.9635 53.2148 31.8281L53.0625 30.7363V30.584ZM62.6602 10.957L62.3555 11.0078C62.1185 11.1771 61.9661 11.2533 61.8984 11.2363C61.8815 11.3548 61.7376 11.5072 61.4668 11.6934C61.0098 12.252 60.722 12.6921 60.6035 13.0137C60.3835 13.5046 60.2734 13.75 60.2734 13.75V13.9277L60.1719 14.1309L60.0195 14.7656C60.0026 14.7826 59.9518 14.901 59.8672 15.1211V15.6035L59.7148 15.9082C59.7148 16.0944 59.7064 16.2044 59.6895 16.2383L59.4863 16.9492L59.334 17.6348V17.7363L59.3848 17.7871C59.3171 18.1426 59.2832 18.5065 59.2832 18.8789C59.2832 19.2513 59.2663 19.5391 59.2324 19.7422C59.1647 20.0299 59.1309 21.0033 59.1309 22.6621L59.0801 23.5508C59.0801 23.7878 59.1139 24.0671 59.1816 24.3887V25.0488C59.1816 25.5566 59.1478 25.9036 59.0801 26.0898C59.1478 26.3776 59.1816 26.623 59.1816 26.8262V28.1211C59.1816 28.2057 59.2155 28.3158 59.2832 28.4512V28.7051L59.3848 29.6445C59.4017 29.9661 59.4948 30.4993 59.6641 31.2441C59.6641 31.515 59.6979 31.7773 59.7656 32.0312L59.9688 32.7676C59.9688 32.8691 59.9857 32.9707 60.0195 33.0723L60.1719 33.5801L60.4258 34.0625C60.4427 34.3333 60.5358 34.5195 60.7051 34.6211L60.8574 34.9512C60.9759 35.0189 61.0944 35.1543 61.2129 35.3574C61.3822 35.5944 61.5345 35.7806 61.6699 35.916L62.7617 36.3984H63.752L64.082 36.3477H64.2852L65.0723 36.0938C65.1569 36.043 65.2839 35.9076 65.4531 35.6875C65.6224 35.4505 65.7155 35.3236 65.7324 35.3066C65.8001 35.2389 65.9609 35.2051 66.2148 35.2051C66.2656 35.0527 66.3503 34.8835 66.4688 34.6973C66.5872 34.4941 66.6888 34.2995 66.7734 34.1133C66.8919 33.7917 67.0189 33.5801 67.1543 33.4785C67.1712 33.2415 67.2559 32.9284 67.4082 32.5391C67.3743 32.4036 67.3913 32.2005 67.459 31.9297C67.5267 31.6419 67.5775 31.4811 67.6113 31.4473L67.6621 30.8379L67.7637 30.584L68.0176 29.1113C68.0514 28.9759 68.0684 28.7728 68.0684 28.502L68.1191 27.6133L68.2969 25.0996C68.3815 22.8145 68.3815 21.2741 68.2969 20.4785V18.2949C68.1784 17.9395 68.1191 17.5417 68.1191 17.1016L67.9668 16.6445C67.8822 15.9336 67.8314 15.5697 67.8145 15.5527L67.7637 15.4512V15.3242C67.6621 14.918 67.5605 14.6133 67.459 14.4102V14.1309L67.1543 13.4199C67.1204 13.2507 67.0697 13.0898 67.002 12.9375C66.9512 12.7852 66.9089 12.6751 66.875 12.6074C66.8411 12.5397 66.8242 12.4974 66.8242 12.4805L66.7734 12.4297C66.6549 12.1758 66.4857 11.8965 66.2656 11.5918C65.9948 11.321 65.834 11.1855 65.7832 11.1855H65.7324L65.6816 11.084L64.9453 10.7031L64.082 10.6016C64.0651 10.6016 64.0566 10.6016 64.0566 10.6016C64.0228 10.6354 63.8535 10.6693 63.5488 10.7031C63.278 10.7201 62.9818 10.8047 62.6602 10.957ZM81.7285 17.6855C81.5254 17.127 81.4238 16.7207 81.4238 16.4668V15.0195C81.3561 14.901 81.3223 14.8164 81.3223 14.7656V14.2324L81.0176 13.0391C80.916 12.3281 80.8652 11.8203 80.8652 11.5156C80.8652 11.194 80.806 10.8047 80.6875 10.3477L80.5352 8.82422L80.3828 8.26562L80.2305 6.48828C80.1797 6.38672 80.1458 6.2513 80.1289 6.08203C80.112 5.89583 80.0951 5.77734 80.0781 5.72656L80.3828 5.49805H81.373L81.7285 5.39648C81.8639 5.39648 82.0586 5.36263 82.3125 5.29492H83.8105L84.1914 5.24414H84.4453C84.5807 5.24414 84.6992 5.22721 84.8008 5.19336L85.4355 5.0918H86.2227C86.2227 5.39648 86.2565 5.70964 86.3242 6.03125C86.3919 6.03125 86.4258 6.0651 86.4258 6.13281V6.28516L86.6797 7.32617L86.7305 7.55469L86.832 8.77344C86.8997 9.19661 86.9844 9.49284 87.0859 9.66211L87.1367 10.3477L87.1875 10.3984V10.6523L87.416 11.7949C87.4329 11.8118 87.4414 11.8372 87.4414 11.8711L87.4668 11.9219V12.2266L87.6699 14.0801C87.7207 14.2155 87.7884 14.5879 87.873 15.1973C87.9577 15.6882 88.0254 15.9759 88.0762 16.0605V16.543C88.1439 16.7969 88.1777 17 88.1777 17.1523L88.5078 19.0312V19.6406L88.5586 20.3262L88.7109 21.5195V22.002C88.7279 22.0527 88.7448 22.222 88.7617 22.5098C88.7786 22.7806 88.8125 22.9922 88.8633 23.1445L89.0156 24.084L89.1426 25.0234L89.2695 25.9375L89.3203 26.0898L89.4219 26.4961L89.5996 27.8164C89.752 28.4766 89.8366 29.0352 89.8535 29.4922C89.9212 29.4922 89.9635 29.4837 89.9805 29.4668C90.0143 29.4329 90.0651 29.3568 90.1328 29.2383C90.2005 29.1198 90.2767 29.0098 90.3613 28.9082V28.6543C90.4967 28.5527 90.5898 28.4427 90.6406 28.3242C90.6914 28.1888 90.7422 28.0872 90.793 28.0195L91.1484 27.3086C91.1484 27.2747 91.1823 27.2493 91.25 27.2324C91.4362 26.7923 91.5801 26.5384 91.6816 26.4707C91.6816 26.3522 91.7663 26.1237 91.9355 25.7852V25.7344C92.0371 25.6328 92.0879 25.4974 92.0879 25.3281L92.3926 24.7949C92.3926 24.6934 92.4772 24.4987 92.6465 24.2109C92.8158 23.9232 92.9427 23.737 93.0273 23.6523C93.112 23.3307 93.1966 23.1615 93.2812 23.1445C93.2643 22.9753 93.3151 22.7806 93.4336 22.5605C93.4336 22.2897 93.4674 22.0951 93.5352 21.9766C93.9245 21.2995 94.1191 20.8171 94.1191 20.5293L94.4238 19.9707C94.6439 19.3105 94.8216 18.9297 94.957 18.8281C95.0247 18.5404 95.1771 18.2103 95.4141 17.8379C95.4818 17.2793 95.7272 17.0508 96.1504 17.1523C96.2181 17.1523 96.3704 17.2708 96.6074 17.5078C96.6413 17.6432 96.6582 17.804 96.6582 17.9902L97.1914 18.6758C97.3099 18.9974 97.5299 19.446 97.8516 20.0215L98.1816 20.7324C98.1986 20.834 98.3001 21.0625 98.4863 21.418C98.6725 21.7565 98.7741 22.002 98.791 22.1543L99.3242 23.2969C99.3411 23.3815 99.4089 23.5339 99.5273 23.7539C99.6458 23.974 99.7135 24.1517 99.7305 24.2871L99.9844 24.7949L100.035 25.0996L100.314 25.582C100.484 25.9883 100.568 26.2507 100.568 26.3691C100.704 26.5046 100.797 26.6569 100.848 26.8262C100.915 26.9954 100.949 27.1309 100.949 27.2324C100.966 27.3171 100.992 27.3594 101.025 27.3594C101.093 27.3594 101.127 27.2493 101.127 27.0293C101.195 26.9447 101.229 26.7585 101.229 26.4707L101.965 22.7129L102.066 22.0527L102.219 21.4688V21.1641C102.354 20.8763 102.481 20.2839 102.6 19.3867L103.057 17.3555C103.074 17.3385 103.082 17.2793 103.082 17.1777C103.082 17.0592 103.107 16.9831 103.158 16.9492L103.311 15.8574C103.327 15.7728 103.361 15.5866 103.412 15.2988C103.463 15.0111 103.505 14.8333 103.539 14.7656L103.742 13.7754C103.81 13.6738 103.869 13.4368 103.92 13.0645C103.971 12.7428 104.013 12.5228 104.047 12.4043C104.081 12.2858 104.148 11.9303 104.25 11.3379V11.0078C104.318 11.0078 104.352 10.957 104.352 10.8555L104.783 9.35742V8.31641L104.936 7.5293C105.122 6.58138 105.291 5.83659 105.443 5.29492C105.511 5.24414 105.655 5.20182 105.875 5.16797C106.112 5.13411 106.247 5.10872 106.281 5.0918C106.4 5.15951 106.654 5.19336 107.043 5.19336C107.449 5.19336 107.72 5.22721 107.855 5.29492L109.252 5.3457L109.379 5.32031L110.191 5.39648C110.361 5.39648 110.53 5.40495 110.699 5.42188C110.868 5.4388 110.987 5.45573 111.055 5.47266C111.139 5.47266 111.215 5.47266 111.283 5.47266C111.351 5.47266 111.402 5.46419 111.436 5.44727C111.486 5.41341 111.52 5.36263 111.537 5.29492C111.656 5.29492 111.808 5.32878 111.994 5.39648C112.062 5.49805 112.053 5.72656 111.969 6.08203C111.884 6.45443 111.842 6.68294 111.842 6.76758V6.9707C111.808 7.00456 111.791 7.07227 111.791 7.17383L111.436 9.00195C111.452 9.01888 111.452 9.03581 111.436 9.05273C111.436 9.06966 111.419 9.08659 111.385 9.10352V9.20508C111.351 9.30664 111.334 9.4082 111.334 9.50977L111.232 10.1445L110.852 11.9473L110.699 12.7344C110.615 13.2253 110.53 13.5553 110.445 13.7246C110.361 14.4355 110.225 15.1973 110.039 16.0098V16.1621L109.557 18.1426V18.2949L109.455 18.7266L109.303 19.9199C109.269 20.0553 109.252 20.1908 109.252 20.3262C109.083 20.7324 108.998 21.2318 108.998 21.8242L108.668 23.1445L108.516 23.8555V24.3887L108.363 24.998L108.262 25.7344L108.109 26.3691C108.042 26.623 108.008 26.8431 108.008 27.0293L107.906 27.7656L107.855 27.8672V28.0703C107.822 28.1211 107.779 28.2311 107.729 28.4004L107.627 29.1113L107.475 29.7461V30.3555C107.305 30.8464 107.221 31.3034 107.221 31.7266C107.17 31.8281 107.119 32.0482 107.068 32.3867C107.018 32.7083 106.984 32.8861 106.967 32.9199L106.764 34.1641C106.713 34.2148 106.688 34.3333 106.688 34.5195L106.484 35.4082C106.467 35.4928 106.442 35.5944 106.408 35.7129C106.391 35.8314 106.366 35.9414 106.332 36.043C106.315 36.1445 106.298 36.2292 106.281 36.2969L106.23 36.8555L106.18 36.9062V37.0078L106.23 37.084L106.129 37.2871L105.977 38.4805C105.841 38.8698 105.79 39.1829 105.824 39.4199C105.74 39.5046 105.672 39.6315 105.621 39.8008C105.587 39.9531 105.553 40.1224 105.52 40.3086C105.503 40.4948 105.486 40.6133 105.469 40.6641L105.418 41.1719C105.418 41.2904 105.384 41.4935 105.316 41.7812C105.266 42.069 105.24 42.2637 105.24 42.3652C105.139 42.4668 105.037 42.543 104.936 42.5938C104.936 42.763 104.885 42.8477 104.783 42.8477C104.597 42.9154 104.402 42.9492 104.199 42.9492L103.59 42.8984H102.396L101.66 42.9492C101.491 42.9492 101.245 42.9154 100.924 42.8477L100.314 42.8984C100.281 42.8646 100.238 42.8477 100.188 42.8477L100.137 42.8984H99.9082C99.8405 42.8984 99.6543 42.9238 99.3496 42.9746C99.0618 43.0254 98.8757 43.0339 98.791 43C98.7402 42.9661 98.6725 42.873 98.5879 42.7207C98.5202 42.5514 98.4694 42.4499 98.4355 42.416C98.4355 42.2806 98.3763 42.0352 98.2578 41.6797C98.1393 41.3242 98.0378 41.1042 97.9531 41.0195V40.9688C97.9531 40.9349 97.9277 40.918 97.877 40.918C97.8431 40.918 97.5977 40.207 97.1406 38.7852V38.7344C97.1406 38.6328 97.0898 38.582 96.9883 38.582V38.2266C96.7682 37.9049 96.6328 37.4733 96.582 36.9316C96.5312 36.4069 96.4043 35.9499 96.2012 35.5605L95.8203 34.7734L95.5156 34.0117L95.2109 34.418C95.1771 34.6549 95.1178 34.8665 95.0332 35.0527C94.9486 35.222 94.8809 35.3405 94.8301 35.4082C94.7793 35.4759 94.7708 35.5267 94.8047 35.5605C94.7201 35.6452 94.5931 35.9076 94.4238 36.3477L93.2812 38.6836L92.8242 39.9785C92.8411 40.0462 92.8242 40.0801 92.7734 40.0801V40.1309C92.7227 40.1309 92.7057 40.1901 92.7227 40.3086L92.6719 40.3594C92.4688 40.9518 92.3503 41.2734 92.3164 41.3242C92.2487 41.4258 92.1979 41.5781 92.1641 41.7812L92.0371 42.2383C92.0033 42.3398 91.9863 42.3991 91.9863 42.416C91.8001 42.4837 91.6393 42.5599 91.5039 42.6445H90.8945C90.4375 42.6445 90.1582 42.6615 90.0566 42.6953C90.0397 42.6276 89.8789 42.6191 89.5742 42.6699C89.3034 42.7207 89.1341 42.7461 89.0664 42.7461L87.9746 42.6953H85.1816V42.5938C85.0632 42.526 84.987 42.4922 84.9531 42.4922V42.3652L84.8516 42.3145C84.7839 42.2806 84.7415 42.2044 84.7246 42.0859C84.7246 42.0013 84.7077 41.9251 84.6738 41.8574C84.64 41.7897 84.6146 41.7474 84.5977 41.7305C84.5977 41.7135 84.6146 41.6882 84.6484 41.6543V41.502L84.5469 40.8672C84.5469 40.8503 84.5299 40.7402 84.4961 40.5371C84.4792 40.3171 84.4115 40.1478 84.293 40.0293L84.3438 39.9023C84.3776 39.8177 84.3776 39.7585 84.3438 39.7246L84.1406 38.9883C84.0898 38.8529 84.0475 38.5228 84.0137 37.998C83.9798 37.4564 83.946 37.1263 83.9121 37.0078L83.7598 36.5V35.916C83.7598 35.8652 83.7259 35.7806 83.6582 35.6621V35.3574L83.5566 34.8242V34.5195C83.5566 34.4688 83.5228 34.3841 83.4551 34.2656L83.3027 32.5391L83.1504 32.0312C83.1504 31.5234 83.1165 31.1426 83.0488 30.8887L82.7695 29.2637C82.7018 29.1452 82.668 29.0605 82.668 29.0098V28.7051L82.5664 28.2227L82.6172 28.1211L82.5918 27.8418C82.541 27.5033 82.4987 27.2663 82.4648 27.1309V27.0293C82.5156 26.9447 82.4987 26.8092 82.4141 26.623C82.4479 26.5892 82.4648 26.5638 82.4648 26.5469C82.4648 26.513 82.4564 26.4876 82.4395 26.4707C82.4225 26.4538 82.4141 26.4368 82.4141 26.4199V25.2266L82.2617 24.7949V24.084C82.2617 24.0671 82.2533 23.9232 82.2363 23.6523C82.2194 23.3646 82.1771 23.1784 82.1094 23.0938V22.5605L82.0586 22.2051V21.6211C81.957 20.8932 81.9232 20.3939 81.957 20.123C81.8555 19.8184 81.8047 19.3105 81.8047 18.5996L81.7285 18.1426V17.6855ZM129.285 11.6426L129.133 11.6172L128.219 11.4648C127.745 11.3971 127.457 11.321 127.355 11.2363L126.898 11.3887C126.898 11.4564 126.865 11.4902 126.797 11.4902L126.365 11.6426C126.23 11.6426 126.044 11.7611 125.807 11.998L125.375 12.3281L125.172 12.7852L124.867 13.2676V13.4707C124.867 13.6061 124.833 13.7077 124.766 13.7754L124.867 15.5527C124.867 15.6543 124.901 15.7982 124.969 15.9844C125.053 16.1536 125.138 16.306 125.223 16.4414L125.324 16.6445V16.8984C125.375 16.9154 125.443 17.0085 125.527 17.1777C125.612 17.3301 125.671 17.4232 125.705 17.457C125.824 17.8125 125.993 18.1257 126.213 18.3965C126.484 18.7012 126.848 19.082 127.305 19.5391C127.457 19.6068 127.719 19.7845 128.092 20.0723L128.549 20.377L128.803 20.6309L129.285 20.9609L129.564 21.1133L130.021 21.418L130.275 21.5703C130.36 21.6549 130.512 21.765 130.732 21.9004L131.266 22.1543C131.418 22.2559 131.799 22.459 132.408 22.7637C132.662 23.0853 132.941 23.3477 133.246 23.5508L133.805 23.957L133.855 24.084C133.889 24.1178 133.991 24.1855 134.16 24.2871L135.023 25.3027L135.201 25.5312C135.269 25.6328 135.328 25.6836 135.379 25.6836L135.633 26.1914C135.734 26.293 135.785 26.3861 135.785 26.4707L136.395 27.2324L136.521 27.6133L136.674 27.918V28.1211L136.928 28.502C136.894 28.5866 136.928 28.722 137.029 28.9082C137.114 29.2298 137.215 29.5599 137.334 29.8984C137.3 30.1354 137.334 30.3385 137.436 30.5078C137.419 30.5417 137.419 30.7194 137.436 31.041C137.469 31.3457 137.452 31.5319 137.385 31.5996L137.562 32.2344C137.529 32.4375 137.529 32.6152 137.562 32.7676L137.512 32.9199L137.562 33.2754C137.512 33.3939 137.486 33.5039 137.486 33.6055C137.486 33.707 137.495 33.7747 137.512 33.8086C137.529 33.8424 137.529 33.8763 137.512 33.9102L137.334 34.5703C137.317 34.7057 137.224 34.9935 137.055 35.4336C136.885 35.8737 136.792 36.1953 136.775 36.3984C136.64 36.5339 136.513 36.7962 136.395 37.1855C136.191 37.4225 136.031 37.651 135.912 37.8711C135.811 38.0742 135.743 38.2181 135.709 38.3027C135.692 38.3874 135.667 38.4297 135.633 38.4297L135.303 38.8359L135.15 39.0898L135.049 39.1914L134.846 39.4707L134.744 39.5723L134.592 39.877C134.592 39.9108 134.558 39.9277 134.49 39.9277C134.49 40.097 134.439 40.1816 134.338 40.1816H134.287C134.27 40.1986 134.253 40.224 134.236 40.2578C134.219 40.2917 134.202 40.3255 134.186 40.3594C134.169 40.3763 134.152 40.4017 134.135 40.4355C134.118 40.4525 134.092 40.4609 134.059 40.4609C133.974 40.5964 133.889 40.6641 133.805 40.6641L132.814 41.6543C132.781 41.6543 132.662 41.7051 132.459 41.8066L131.824 42.0098L131.367 42.2129C131.13 42.2129 130.969 42.2637 130.885 42.3652H130.529C130.428 42.3483 130.343 42.4076 130.275 42.543C130.005 42.4753 129.674 42.5091 129.285 42.6445C129.201 42.6107 128.854 42.6445 128.244 42.7461L127.889 42.6953L127.457 42.7461C127.271 42.6784 127.102 42.6445 126.949 42.6445C126.509 42.6445 126.145 42.6107 125.857 42.543L125.324 42.416L125.223 42.4922H124.436C124.351 42.4414 124.114 42.3991 123.725 42.3652C123.098 42.179 122.65 42.0267 122.379 41.9082H122.252L122.176 41.8828L120.703 41.0703L119.713 40.0801C119.425 39.5215 119.197 39.1406 119.027 38.9375L118.723 38.2773L118.57 37.8965L118.469 37.7949L118.316 37.2871C118.283 37.1855 118.232 37.0332 118.164 36.8301C118.113 36.61 118.062 36.4492 118.012 36.3477C118.012 36.1784 117.969 35.8991 117.885 35.5098L117.732 34.7227L117.529 33.9609C117.462 33.6901 117.428 33.3431 117.428 32.9199V31.9805C117.428 31.4219 117.445 30.9902 117.479 30.6855L117.631 29.9492L118.316 29.8984C118.587 29.8646 119.214 29.8477 120.195 29.8477H120.602C120.618 29.8307 120.644 29.8223 120.678 29.8223C120.712 29.8223 120.771 29.8307 120.855 29.8477C120.957 29.8477 121.109 29.8307 121.312 29.7969C121.651 29.763 121.846 29.7799 121.896 29.8477H123.572L124.283 29.6953C124.283 29.7292 124.359 29.7799 124.512 29.8477C124.512 29.9831 124.562 30.1016 124.664 30.2031C124.546 30.5586 124.562 31.1003 124.715 31.8281V32.082L124.816 32.2852C124.783 32.3529 124.766 32.4121 124.766 32.4629C124.783 32.5137 124.799 32.5898 124.816 32.6914C124.85 32.793 124.867 32.8691 124.867 32.9199L125.223 33.6816L125.959 34.1133C126.314 34.1133 126.526 34.1471 126.594 34.2148C126.661 34.2826 126.814 34.3164 127.051 34.3164L127.152 34.2656C127.44 34.3333 127.719 34.3503 127.99 34.3164C128.532 34.181 129.065 33.6393 129.59 32.6914C129.658 32.5729 129.691 32.4544 129.691 32.3359L129.793 31.3457L129.691 30.7871C129.725 30.7363 129.7 30.6686 129.615 30.584C129.548 30.4993 129.514 30.4486 129.514 30.4316C129.294 29.7207 128.921 29.179 128.396 28.8066C128.396 28.7897 128.388 28.7643 128.371 28.7305C128.354 28.6966 128.346 28.6712 128.346 28.6543C128.21 28.6374 127.728 28.2565 126.898 27.5117C126.729 27.5117 126.636 27.4779 126.619 27.4102L126.467 27.2324L126.365 27.1309H126.213L126.061 26.9785L125.426 26.5215C125.087 26.2845 124.901 26.1237 124.867 26.0391C124.715 26.0052 124.486 25.8952 124.182 25.709C123.877 25.5059 123.674 25.3958 123.572 25.3789C123.488 25.2773 123.361 25.1673 123.191 25.0488C123.039 24.9303 122.921 24.8288 122.836 24.7441C122.802 24.7441 122.751 24.7272 122.684 24.6934C122.633 24.6595 122.557 24.6087 122.455 24.541C122.354 24.4564 122.252 24.3802 122.15 24.3125C121.947 24.1771 121.846 24.1009 121.846 24.084L121.795 23.957L121.592 23.8555L121.109 23.3984C121.025 23.3815 120.906 23.2969 120.754 23.1445L120.398 22.916L120.119 22.5605L119.51 21.5703C119.087 20.8932 118.74 20.3092 118.469 19.8184C118.367 19.5814 118.283 19.4206 118.215 19.3359C117.775 18.0326 117.546 17.1862 117.529 16.7969L117.377 15.8066L117.402 15.6797L117.326 14.8164V14.7148C117.36 14.681 117.377 14.6471 117.377 14.6133L117.326 14.4102V14.0293L117.834 11.084C117.969 10.8639 118.113 10.4408 118.266 9.81445C118.621 9.13737 118.807 8.77344 118.824 8.72266C119.01 8.53646 119.197 8.30794 119.383 8.03711C119.671 7.66471 119.865 7.42773 119.967 7.32617L120.551 6.86914L121.008 6.38672L121.287 6.13281C121.389 6.08203 121.541 5.96354 121.744 5.77734C121.964 5.59115 122.1 5.48112 122.15 5.44727L122.633 5.14258H122.734C122.734 5.07487 122.751 5.04102 122.785 5.04102C122.853 5.04102 122.963 5.00716 123.115 4.93945C123.268 4.87174 123.344 4.82096 123.344 4.78711C123.615 4.78711 123.818 4.71094 123.953 4.55859C124.072 4.38932 124.427 4.30469 125.02 4.30469C125.46 4.10156 125.976 4.00846 126.568 4.02539C126.89 4.04232 127.22 4.05078 127.559 4.05078L128.549 4.25391L128.727 4.22852C128.828 4.19466 128.947 4.22005 129.082 4.30469H129.133L129.184 4.25391C129.522 4.25391 129.785 4.38086 129.971 4.63477L130.479 4.78711C130.682 4.78711 130.834 4.83789 130.936 4.93945L131.469 4.99023L132.611 5.3457L132.814 5.54883H132.916C132.984 5.56576 133.035 5.60807 133.068 5.67578L133.5 5.98047L133.957 6.18359H134.059L134.16 6.23438L134.643 6.64062C134.727 6.64062 134.888 6.75911 135.125 6.99609C135.396 7.26693 135.574 7.4362 135.658 7.50391C135.777 7.57161 135.836 7.67318 135.836 7.80859L135.887 7.85938H135.938C136.31 8.48568 136.505 8.86654 136.521 9.00195C136.894 9.47591 137.08 9.80599 137.08 9.99219L137.334 10.7539C137.334 10.8724 137.368 10.9993 137.436 11.1348L137.613 11.998C137.613 12.0488 137.639 12.2773 137.689 12.6836C137.74 13.0898 137.766 14.4609 137.766 16.7969L137.334 17.2539L135.887 17.1523H135.684C135.565 17.2201 135.438 17.2539 135.303 17.2539H134.896L134.846 17.3047L133.348 17.3555C132.671 17.4401 132.256 17.4232 132.104 17.3047C132.002 17.3385 131.672 17.3555 131.113 17.3555L130.783 16.7461C130.851 16.2552 130.817 15.4596 130.682 14.3594C130.563 13.3438 130.428 12.7513 130.275 12.582C130.258 12.4974 129.928 12.1842 129.285 11.6426ZM150.893 22.3066C150.791 22.5098 150.74 22.9414 150.74 23.6016L150.791 23.8555C150.757 24.1263 150.74 24.5241 150.74 25.0488L150.791 25.2773V26.5215C150.723 26.9277 150.74 27.3763 150.842 27.8672L150.791 28.7559C150.876 29.8561 150.977 30.5163 151.096 30.7363L151.146 31.3965L151.477 32.2852C151.493 32.3698 151.578 32.4883 151.73 32.6406C151.815 32.9115 151.917 33.1569 152.035 33.377L152.467 34.0117V34.0625L152.518 34.2148C152.771 34.3333 153.152 34.6465 153.66 35.1543C153.948 35.222 154.134 35.3236 154.219 35.459C154.473 35.459 154.752 35.5267 155.057 35.6621C155.581 35.6621 155.861 35.679 155.895 35.7129C156.013 35.6452 156.216 35.6113 156.504 35.6113C156.572 35.5775 156.766 35.5352 157.088 35.4844C157.426 35.4336 157.689 35.3574 157.875 35.2559L158.637 34.9512C158.654 34.9342 158.688 34.8919 158.738 34.8242C158.806 34.7565 158.865 34.6973 158.916 34.6465C158.984 34.5788 159.035 34.5365 159.068 34.5195C159.153 34.2995 159.271 34.1471 159.424 34.0625C159.441 33.8763 159.559 33.597 159.779 33.2246L159.957 32.6406C160.059 32.4375 160.126 32.2174 160.16 31.9805C160.194 31.7435 160.228 31.5996 160.262 31.5488C160.194 31.3288 160.194 31.0241 160.262 30.6348L161.1 30.2031H163.004C163.038 30.2031 163.283 30.2539 163.74 30.3555L164.527 30.4062C164.798 30.4062 164.951 30.3893 164.984 30.3555C165.035 30.3724 165.128 30.3978 165.264 30.4316C165.399 30.4655 165.526 30.5163 165.645 30.584C165.763 30.6348 165.89 30.7194 166.025 30.8379V31.5996L166.076 32.4375L166.051 32.5898C166.034 32.6745 166.042 32.7676 166.076 32.8691V32.9707L165.975 33.2246V33.4023L165.822 35.2559C165.771 35.3236 165.704 35.5267 165.619 35.8652C165.535 36.1868 165.467 36.3815 165.416 36.4492L164.934 37.541C164.934 37.778 164.57 38.3704 163.842 39.3184L163.689 39.4707C163.605 39.4876 163.469 39.5892 163.283 39.7754H163.182L162.75 40.1816C162.513 40.3171 162.395 40.4102 162.395 40.4609C162.242 40.4609 162.081 40.5286 161.912 40.6641C161.624 40.7995 161.472 40.901 161.455 40.9688C161.167 41.0534 160.99 41.138 160.922 41.2227L160.16 41.5527C160.109 41.6035 159.974 41.6712 159.754 41.7559C159.551 41.8405 159.441 41.8913 159.424 41.9082C159.288 41.8743 159.161 41.8828 159.043 41.9336C158.586 42.1029 158.044 42.1536 157.418 42.0859C157.164 42.0521 156.885 42.0352 156.58 42.0352C156.292 42.0182 156.072 42.0098 155.92 42.0098C155.768 41.9928 155.691 41.9759 155.691 41.959L153.508 41.8574C153.288 41.7728 153.042 41.7135 152.771 41.6797C152.518 41.6289 152.306 41.5866 152.137 41.5527C151.984 41.5189 151.874 41.4766 151.807 41.4258C151.688 41.3242 151.578 41.2904 151.477 41.3242L150.994 41.1719C150.96 41.1211 150.884 41.0788 150.766 41.0449C150.664 41.0111 150.605 40.9772 150.588 40.9434C150.571 40.9095 150.41 40.8503 150.105 40.7656C149.97 40.6302 149.852 40.5625 149.75 40.5625L148.709 39.623C148.709 39.5892 148.658 39.5723 148.557 39.5723C148.523 39.5215 148.354 39.3353 148.049 39.0137C147.761 38.6751 147.431 38.235 147.059 37.6934L147.008 37.6426C146.94 37.5749 146.83 37.4395 146.678 37.2363C146.525 37.0163 146.373 36.8216 146.221 36.6523C146.221 36.5 146.136 36.3138 145.967 36.0938C145.95 35.9414 145.806 35.6283 145.535 35.1543L145.129 34.3164C145.129 34.2656 145.044 33.9863 144.875 33.4785L144.723 32.5391L144.545 31.7266C144.528 31.6589 144.494 31.515 144.443 31.2949C144.41 31.0749 144.376 30.9395 144.342 30.8887L144.189 28.2227C144.088 27.918 144.037 27.6133 144.037 27.3086V26.9277L144.088 25.7852L144.062 25.6836V25.4297L144.139 24.998L144.088 24.8965L144.189 23.957V21.4688C144.257 21.2826 144.291 21.1725 144.291 21.1387L144.24 20.5801V19.3359C144.24 19.2513 144.274 19.1497 144.342 19.0312C144.274 18.4388 144.291 17.8633 144.393 17.3047V17.1016L144.494 17L144.545 16.4922V16.2637L144.646 16.1113C144.646 15.6882 144.706 15.4089 144.824 15.2734V15.1211C144.824 15.0026 144.858 14.8503 144.926 14.6641L145.078 13.9277L145.23 13.4199C145.417 12.7259 145.764 11.8372 146.271 10.7539L146.525 10.2969C146.559 10.2969 146.576 10.2799 146.576 10.2461L147.109 9.4082C147.346 9.00195 147.6 8.66341 147.871 8.39258C148.159 8.10482 148.32 7.91016 148.354 7.80859C148.387 7.79167 148.455 7.72396 148.557 7.60547C148.675 7.48698 148.76 7.42773 148.811 7.42773L149.242 7.02148L150.791 6.23438C150.808 6.23438 150.859 6.20052 150.943 6.13281C151.028 6.0651 151.096 6.04818 151.146 6.08203L151.68 5.67578C151.798 5.67578 151.967 5.64193 152.188 5.57422C152.424 5.50651 152.568 5.4388 152.619 5.37109L152.746 5.24414H152.797L153.965 4.78711C154.033 4.80404 154.109 4.8125 154.193 4.8125C154.295 4.79557 154.38 4.77865 154.447 4.76172C154.532 4.72786 154.608 4.69401 154.676 4.66016L154.777 4.63477H155.158C155.226 4.56706 155.708 4.52474 156.605 4.50781H157.139C157.426 4.47396 157.773 4.50781 158.18 4.60938C158.603 4.69401 158.899 4.73633 159.068 4.73633C159.17 4.80404 159.288 4.82096 159.424 4.78711L159.779 4.99023C159.847 4.95638 159.965 4.97331 160.135 5.04102C160.304 5.10872 160.414 5.14258 160.465 5.14258C160.465 5.24414 160.566 5.29492 160.77 5.29492C160.956 5.41341 161.117 5.54036 161.252 5.67578L161.455 5.77734C161.489 5.8112 161.489 5.82812 161.455 5.82812L161.76 5.92969C161.912 6.08203 162.225 6.30208 162.699 6.58984C163.156 6.84375 163.486 7.17383 163.689 7.58008C163.825 7.71549 163.926 7.85938 163.994 8.01172L164.146 8.11328L164.832 9.35742L164.934 9.45898L165.01 9.61133L165.035 9.71289C165.069 9.7806 165.111 9.89909 165.162 10.0684C165.23 10.2207 165.298 10.3815 165.365 10.5508C165.467 11.0924 165.535 11.4225 165.568 11.541L165.771 12.4805L165.746 12.5566L165.771 13.0898V14.6641C165.771 15.1719 165.856 15.6712 166.025 16.1621C165.992 16.2298 165.932 16.3398 165.848 16.4922C165.78 16.6445 165.712 16.7715 165.645 16.873C165.594 16.9577 165.551 17 165.518 17L164.934 16.9492C164.73 16.9492 164.544 16.9661 164.375 17H164.223H163.182H162.395C161.701 16.9154 161.286 16.9154 161.15 17C161.117 16.9831 160.998 16.9661 160.795 16.9492C160.609 16.9154 160.448 16.8307 160.312 16.6953C160.092 16.6953 159.898 16.6276 159.729 16.4922C159.644 16.1536 159.661 15.6458 159.779 14.9688L159.729 14.3086C159.661 14.1224 159.627 13.9785 159.627 13.877L159.424 13.5215V13.2676C159.356 13.1999 159.322 13.1406 159.322 13.0898C159.221 13.0221 159.085 12.8359 158.916 12.5312L158.281 12.0488H158.18C157.875 11.7441 157.291 11.5918 156.428 11.5918H156.301C155.827 11.6087 155.243 11.7611 154.549 12.0488L153.66 12.582L153.508 12.7344C153.423 12.8698 153.262 12.9883 153.025 13.0898L152.67 13.8516C152.67 13.8854 152.628 13.9362 152.543 14.0039C152.475 14.0716 152.408 14.207 152.34 14.4102C152.272 14.681 152.188 14.8164 152.086 14.8164C152.069 14.8503 152.044 14.9349 152.01 15.0703C151.993 15.1888 151.951 15.3327 151.883 15.502C151.832 15.6543 151.764 15.8066 151.68 15.959L151.578 16.543C151.544 16.5768 151.519 16.6615 151.502 16.7969C151.485 16.9323 151.46 17.0169 151.426 17.0508V17.457L151.273 17.8379L151.146 18.9805L151.096 19.0312C151.13 19.099 151.113 19.319 151.045 19.6914V20.2246L150.893 21.4688C150.876 21.7057 150.876 21.985 150.893 22.3066ZM186.77 21.3672L187.607 21.3164C187.726 21.2487 187.836 21.2148 187.938 21.2148H188.801C188.97 21.2826 189.3 21.2826 189.791 21.2148C189.926 20.8932 189.91 20.6478 189.74 20.4785C189.808 20.36 189.842 20.1569 189.842 19.8691V19.2852L189.816 19.1328V18.7266L189.842 17.5078V14.7148C189.74 13.9531 189.757 13.3438 189.893 12.8867C189.825 12.819 189.816 12.599 189.867 12.2266C189.918 11.8542 189.943 11.6257 189.943 11.541L190.096 10.1953L189.994 9.81445V8.77344L189.943 8.36719V7.73242L189.918 7.58008C189.918 7.47852 189.91 7.31771 189.893 7.09766C189.893 6.8776 189.893 6.64062 189.893 6.38672C189.859 5.47266 189.926 4.79557 190.096 4.35547C190.062 4.32161 190.045 4.29622 190.045 4.2793C190.062 4.24544 190.079 4.21159 190.096 4.17773C190.13 4.14388 190.146 4.11849 190.146 4.10156C190.163 4.06771 190.231 4.05078 190.35 4.05078C190.468 4.05078 190.544 4.03385 190.578 4C190.629 4.08464 190.764 4.13542 190.984 4.15234C191.204 4.16927 191.323 4.1862 191.34 4.20312L191.67 4.10156L193.803 4.15234L193.955 4.10156L194.006 4.20312H194.209L194.945 4.35547C195.335 4.35547 195.665 4.33854 195.936 4.30469C195.936 4.33854 195.986 4.39779 196.088 4.48242C196.189 4.56706 196.223 4.64323 196.189 4.71094C196.173 4.77865 196.173 4.84635 196.189 4.91406C196.206 4.96484 196.232 5.01562 196.266 5.06641L196.291 5.16797V5.72656L196.088 9.05273V9.35742C196.122 9.52669 196.139 9.73828 196.139 9.99219V11.2871L196.088 12.582V16.2129L196.24 17.5078V18.7266L196.291 19.2344C196.223 19.4883 196.189 19.6999 196.189 19.8691L196.24 20.1738L196.189 22.0527L196.24 22.1543V22.3066L196.189 23.0938V28.0195H196.139V28.2227L196.189 28.3242L196.164 28.4004L196.189 28.9082L196.139 29.6953L196.189 30.0508L196.037 32.6406V32.9199C196.003 33.123 196.037 33.6393 196.139 34.4688V34.5195C196.105 34.5534 196.088 34.5872 196.088 34.6211L196.139 34.7734L196.037 35.3066L196.139 36.7031C196.139 36.737 196.13 36.847 196.113 37.0332C196.096 37.2194 196.079 37.3802 196.062 37.5156C196.062 37.651 196.071 37.7949 196.088 37.9473L196.139 38.7344C196.139 39.2422 196.088 39.7077 195.986 40.1309C195.885 40.571 195.919 40.8503 196.088 40.9688C196.24 41.1042 196.266 41.2565 196.164 41.4258C196.079 41.6289 196.037 41.7389 196.037 41.7559L195.504 42.0098C195.115 41.8743 194.751 41.8743 194.412 42.0098C193.803 41.9082 193.354 41.9421 193.066 42.1113L191.619 42.0605C191.518 42.1283 191.357 42.1283 191.137 42.0605L190.73 42.1113L190.096 41.959C190.079 41.9251 190.011 41.8659 189.893 41.7812C189.774 41.6797 189.706 41.6035 189.689 41.5527C189.757 41.1634 189.791 40.8333 189.791 40.5625V40.3086L189.74 39.623L189.791 38.4297L189.74 37.998C189.74 36.8978 189.723 36.2969 189.689 36.1953C189.757 36.0091 189.791 35.8991 189.791 35.8652L189.74 35.3574L189.766 35.1797L189.74 33.5801L189.842 32.8691L189.816 32.7422L189.842 31.498L189.791 31.3457V31.2949C189.791 31.278 189.799 31.2611 189.816 31.2441C189.833 31.2272 189.842 31.2103 189.842 31.1934C189.808 31.1595 189.791 31.1595 189.791 31.1934C189.876 30.6009 189.876 29.7376 189.791 28.6035V28.5527C189.791 28.1296 189.74 27.8164 189.639 27.6133C189.182 27.4948 188.716 27.4948 188.242 27.6133C187.87 27.5456 187.574 27.5625 187.354 27.6641C187.32 27.6302 187.159 27.6133 186.871 27.6133H186.363C186.296 27.5456 186.118 27.5117 185.83 27.5117H185.525C185.525 27.5625 185.492 27.5964 185.424 27.6133H185.373C185.339 27.5794 185.246 27.5625 185.094 27.5625C184.958 27.5456 184.874 27.5286 184.84 27.5117H184.789L184.688 27.5625H184.586C184.18 27.5964 183.613 27.6133 182.885 27.6133L182.098 27.6641L181.615 27.6133C181.497 27.6133 181.344 27.6471 181.158 27.7148C180.904 27.7148 180.676 27.7318 180.473 27.7656H179.812L179.914 28.6035L179.863 29.1621L179.914 29.4922C179.914 29.8646 179.931 30.1693 179.965 30.4062L179.914 30.7363C179.914 31.1426 179.897 31.3796 179.863 31.4473L179.812 32.8184V35.916C179.779 36.2038 179.779 36.3984 179.812 36.5C179.846 36.6185 179.838 36.8978 179.787 37.3379C179.736 37.7611 179.711 38.0911 179.711 38.3281L179.762 38.9375V41.0195L179.812 41.1211C179.812 41.1549 179.829 41.2311 179.863 41.3496C179.897 41.4681 179.88 41.5358 179.812 41.5527C179.914 41.6882 179.948 41.8236 179.914 41.959C179.897 42.0775 179.855 42.179 179.787 42.2637C179.719 42.3314 179.66 42.3652 179.609 42.3652L178.771 42.2637L178.391 42.3145L176.334 42.3398C174.946 42.3737 174.193 42.4329 174.074 42.5176C173.939 42.6022 173.803 42.6276 173.668 42.5938C173.566 42.4922 173.482 42.3314 173.414 42.1113L173.566 41.6035C173.533 41.1973 173.516 40.7656 173.516 40.3086V40.0293C173.533 40.0124 173.533 39.987 173.516 39.9531C173.516 39.9193 173.507 39.8685 173.49 39.8008C173.473 39.7161 173.482 39.5892 173.516 39.4199C173.549 39.0475 173.566 38.8529 173.566 38.8359V38.7852L173.516 38.7344V38.6836C173.583 38.4805 173.583 38.3451 173.516 38.2773C173.549 38.2096 173.566 37.7526 173.566 36.9062C173.566 36.1445 173.549 35.5436 173.516 35.1035L173.566 35.002V34.3672C173.6 34.3333 173.6 34.2826 173.566 34.2148V31.2949C173.566 30.8717 173.549 30.474 173.516 30.1016V29.416L173.465 29.3652L173.566 29.1621V29.0605L173.516 28.959C173.516 28.7897 173.533 28.6204 173.566 28.4512V28.2734C173.549 28.2565 173.541 28.2142 173.541 28.1465C173.558 28.0788 173.575 28.0026 173.592 27.918L173.617 27.8164L173.516 27.3086L173.566 26.9277V26.4199C173.566 25.8444 173.533 25.4297 173.465 25.1758V22.4082C173.465 21.748 173.431 21.1895 173.363 20.7324C173.431 20.0384 173.439 19.209 173.389 18.2441C173.338 17.2624 173.346 16.7461 173.414 16.6953L173.363 15.4512V15.3242L173.414 15.2227V13.623L173.516 12.8867C173.549 12.6836 173.549 12.3874 173.516 11.998L173.465 11.1855L173.566 8.41797V8.31641V7.12305L173.516 7.07227V6.76758L173.49 5.92969C173.473 5.38802 173.6 5.10872 173.871 5.0918C174.142 5.07487 174.303 5.04102 174.354 4.99023C174.658 5.02409 174.878 5.00716 175.014 4.93945L175.445 5.0918L176.105 5.04102C176.393 4.97331 176.673 4.93945 176.943 4.93945H177.781C177.9 4.87174 178.018 4.83789 178.137 4.83789L178.619 4.88867C179.33 4.75326 179.694 4.78711 179.711 4.99023L179.965 5.29492C179.897 5.7181 179.863 6.57292 179.863 7.85938C179.812 8.09635 179.796 8.53646 179.812 9.17969C179.829 9.82292 179.821 10.4661 179.787 11.1094C179.736 11.8542 179.711 12.3366 179.711 12.5566V15.6543L179.66 16.7461V17.6348C179.626 17.6686 179.609 17.7617 179.609 17.9141L179.559 18.6758C179.559 19.6406 179.576 20.2415 179.609 20.4785C179.474 20.8678 179.499 21.0794 179.686 21.1133C179.872 21.1471 179.965 21.181 179.965 21.2148H180.371L180.422 21.2656H180.6C180.904 21.2656 181.107 21.2826 181.209 21.3164L181.564 21.2148H181.895C181.962 21.2148 182.038 21.2233 182.123 21.2402C182.225 21.2572 182.301 21.2656 182.352 21.2656C182.419 21.2656 182.47 21.2487 182.504 21.2148L182.555 21.2656H182.707L182.834 21.2148L183.291 21.3164C183.426 21.3164 183.562 21.2995 183.697 21.2656H184.078L184.967 21.2148C185.119 21.2148 185.322 21.2487 185.576 21.3164H186.16H186.236L186.77 21.3672ZM212.592 20.123H213.48L213.836 20.0723L214.725 19.9707C214.945 19.9707 215.063 19.9368 215.08 19.8691H215.664L216.172 19.9199H216.604C218.195 19.9199 219.219 19.8691 219.676 19.7676C219.777 19.8861 219.896 19.9538 220.031 19.9707C220.031 20.1738 219.997 20.2754 219.93 20.2754L219.98 21.2148L219.93 21.6211V22.6621C219.93 23.2207 219.947 23.5677 219.98 23.7031C219.879 24.0078 219.828 24.5156 219.828 25.2266C219.828 25.9036 219.76 26.3099 219.625 26.4453C219.507 26.5638 219.413 26.64 219.346 26.6738C218.719 26.64 218.152 26.6569 217.645 26.7246C217.12 26.7923 216.722 26.8262 216.451 26.8262H215.207C215.173 26.7923 215.131 26.7754 215.08 26.7754H214.979C214.86 26.8431 214.708 26.877 214.521 26.877H214.42C214.386 26.8431 214.352 26.8262 214.318 26.8262L213.836 26.877C213.142 26.7415 212.516 26.7077 211.957 26.7754C211.398 26.8431 211.026 26.86 210.84 26.8262C210.806 26.9616 210.789 27.0378 210.789 27.0547V27.6641L210.713 27.7656C210.713 27.7995 210.738 27.8503 210.789 27.918L210.764 28.0195L210.789 28.7051C210.603 29.7207 210.577 30.3978 210.713 30.7363C210.645 30.8548 210.611 31.0072 210.611 31.1934L210.561 34.0625C210.561 34.5365 210.594 34.8158 210.662 34.9004C210.764 34.9342 211.077 34.9512 211.602 34.9512L212.287 34.8242L212.592 34.9004C212.947 34.9004 213.227 34.8581 213.43 34.7734C213.988 34.7734 214.335 34.7565 214.471 34.7227C214.894 34.7904 215.19 34.7904 215.359 34.7227C215.359 34.7565 215.41 34.7734 215.512 34.7734H215.664C215.901 34.7396 216.163 34.7227 216.451 34.7227L216.654 34.6719H216.705C216.739 34.7057 216.764 34.7227 216.781 34.7227L216.883 34.6973L218 34.6719C218.254 34.6719 218.533 34.6549 218.838 34.6211H221.123C221.326 34.5195 221.479 34.4688 221.58 34.4688H222.012C222.13 34.401 222.206 34.3672 222.24 34.3672L222.9 34.418C223.222 34.418 223.408 34.4518 223.459 34.5195C223.51 34.5872 223.476 34.8158 223.357 35.2051C223.391 35.3405 223.374 35.4928 223.307 35.6621L223.281 36.043C223.264 36.1953 223.256 36.3307 223.256 36.4492L223.307 36.5C223.239 36.5677 223.205 36.6693 223.205 36.8047V37.1094L223.154 40.4609V40.8672L222.672 41.5527C221.978 41.5527 221.597 41.5697 221.529 41.6035H221.428C221.377 41.6543 221.055 41.6458 220.463 41.5781C220.04 41.5273 219.777 41.5527 219.676 41.6543C219.54 41.6204 219.38 41.6035 219.193 41.6035H217.746L217.695 41.6543H217.594L217.543 41.6035H217.289C217.188 41.502 217.077 41.4512 216.959 41.4512H213.379L212.973 41.4004C212.837 41.5358 212.575 41.5358 212.186 41.4004H209.367C208.876 41.4004 208.343 41.3919 207.768 41.375C207.209 41.3411 206.854 41.3242 206.701 41.3242C206.566 41.3073 206.405 41.3073 206.219 41.3242C206.151 41.3581 206.075 41.3581 205.99 41.3242C205.923 41.2734 205.889 41.2734 205.889 41.3242C205.55 41.3242 205.322 41.2904 205.203 41.2227L205.152 40.0293V39.2676C205.152 38.946 205.169 38.7513 205.203 38.6836C205.135 38.599 205.102 38.3535 205.102 37.9473V37.3379L205.051 34.5703L205.102 34.1133V32.9199L205.152 32.5391C205.152 32.1328 205.169 31.9128 205.203 31.8789L205.051 29.7461L205.102 29.543V27.7148L205.076 27.5371C205.059 27.4525 205.051 27.3763 205.051 27.3086L205.102 27.1816C205.102 27.0632 205.068 26.9447 205 26.8262V25.8359L204.949 25.0488L205 23.6523C204.966 23.4154 204.949 22.4251 204.949 20.6816V18.7266L204.898 18.5996L204.949 18.5488C204.949 18.3965 204.915 18.2272 204.848 18.041L204.949 17.3555V17.0508L205 16.4922C204.932 16.0013 204.898 15.4935 204.898 14.9688L204.949 14.7148C204.949 13.8346 204.966 13.3099 205 13.1406C204.932 12.8867 204.898 12.7174 204.898 12.6328L204.949 12.4805L204.924 12.3027L204.898 11.4395L204.848 10.2969V9.45898L204.898 8.95117V7.07227L204.848 6.18359C204.848 5.28646 204.831 4.78711 204.797 4.68555L204.695 4L205 3.84766H205.051L205.686 3.89844L206.295 3.84766L206.879 3.89844H206.955H207.438L208.072 3.84766C208.309 3.76302 208.936 3.76302 209.951 3.84766L210.256 3.79688C210.611 3.79688 210.941 3.77995 211.246 3.74609L211.551 3.84766C211.839 3.79688 212.092 3.77995 212.312 3.79688C212.533 3.8138 212.651 3.8138 212.668 3.79688C212.82 3.76302 212.956 3.77995 213.074 3.84766L214.826 3.59375H214.877L214.953 3.64453C214.987 3.66146 215.055 3.64453 215.156 3.59375H216.299C216.35 3.59375 216.434 3.5599 216.553 3.49219L216.807 3.54297C217.027 3.54297 217.255 3.52604 217.492 3.49219H218.152C218.44 3.3737 218.601 3.33984 218.635 3.39062C218.652 3.3737 218.686 3.36523 218.736 3.36523L218.838 3.41602H219.396C220.141 3.41602 220.581 3.45833 220.717 3.54297H221.123C221.546 3.54297 221.944 3.52604 222.316 3.49219L222.621 3.54297C222.655 3.50911 222.697 3.49219 222.748 3.49219H222.799L222.85 3.54297C222.867 3.54297 222.943 3.52604 223.078 3.49219C223.214 3.45833 223.349 3.44141 223.484 3.44141C223.637 3.44141 223.772 3.47526 223.891 3.54297C224.026 3.74609 224.026 4.47396 223.891 5.72656V6.13281L223.84 6.38672C223.84 7.55469 223.874 8.23177 223.941 8.41797C223.908 8.48568 223.891 8.60417 223.891 8.77344C223.891 8.94271 223.908 9.06966 223.941 9.1543C223.958 9.22201 223.908 9.39128 223.789 9.66211C223.738 9.66211 223.671 9.6875 223.586 9.73828C223.501 9.78906 223.391 9.80599 223.256 9.78906C223.137 9.77214 223.019 9.76367 222.9 9.76367H222.672L222.316 9.71289L220.92 9.91602C220.903 9.89909 220.818 9.88216 220.666 9.86523C220.514 9.84831 220.421 9.83138 220.387 9.81445C220.082 9.93294 219.752 9.93294 219.396 9.81445C219.227 9.91602 219.058 9.91602 218.889 9.81445C218.635 9.88216 218.44 9.91602 218.305 9.91602L217.441 9.94141C216.967 9.97526 216.587 10.026 216.299 10.0938L214.953 10.1191C214.022 10.153 213.531 10.1953 213.48 10.2461L213.176 10.1445L212.338 10.2969H211.652C211.348 10.3984 211.161 10.4492 211.094 10.4492V11.0078C211.094 11.9388 211.111 12.7598 211.145 13.4707V14.7656C211.145 15.4089 211.178 15.7728 211.246 15.8574C211.111 16.2806 211.077 16.89 211.145 17.6855V17.8379L211.195 18.2441C211.195 18.3626 211.161 18.5234 211.094 18.7266V20.0723L211.602 20.0215C211.754 20.123 212.016 20.1738 212.389 20.1738L212.592 20.123Z" fill="white"/>
</svg>
